<?xml version="1.0" encoding="utf-8"?>
<!-- Generator: Adobe Illustrator 19.2.1, SVG Export Plug-In . SVG Version: 6.00 Build 0)  -->
<svg version="1.1" id="Layer_1" xmlns="http://www.w3.org/2000/svg" xmlns:xlink="http://www.w3.org/1999/xlink" x="0px" y="0px"
	 viewBox="0 0 841.9 595.3" style="enable-background:new 0 0 841.9 595.3;" xml:space="preserve">
<style type="text/css">
	.st0{fill:#FFFFFF;}
</style>
<path d="M287,268.5c6.5-4.5,2-10.1-5.5-11.1c-7.6-1-18.6-0.5-23.7,3.5c-8.6,6.5-11.1,0.5-11.1-6c0-9.1,0-25.2,0-49.9
	s-11.6-35.3-19.1-38.8c-7.6-3.5-33.7,2-44.8,8.6C139.9,200,69.9,271.5,63.9,278.1c-6,6.5-18.6,20.7-20.7,31.2
	c-3.2,17,14.6,36.3,29.2,36.3s42.8-17.6,50.9-25.2s-1.5-17.1-5.5-21.7c-3.5-2.5-5.5-8.1-1.5-12.1c18.1-21.2,77.6-71,82.1-74.6
	c4.5-3.5,13.1-9.6,12.6,1c-0.7,14.1-3,61-4,80.1c-29.7,24.7-75.6,51.9-80.1,53.9c-4.5,2-3.5,6-2.5,7.6c2.2,3.3,13.1,14.1,28.2,12.6
	s32.7-17.1,36.3-21.2c3.5-4,6.5-2.5,6,1.5c-4.5,39.8-38.8,174.3-42.3,192.9s19.1,17.6,32.2,13.1c13.1-4.5,23.6-11.8,27.7-27.2
	c4.5-17.1,32.7-166.7,31.7-221.6C253.8,295.7,280.5,273,287,268.5z"/>
<path d="M775.9,137.4c-9.6,7.6-53.4,45.8-63.5,53.4c-10.1,7.6-22.9,19.4-30.7,13.1c-5.3-4.3-3-18.6,0-26.2
	c3-7.6,11.1-28.7,14.1-34.8c3-6-0.5-15.6-6-16.6s-13.6,1-17.1,7.1c-1.8,2.8-6.5,3.5-6.3-2c0.3-5.5,1.3-20.4-7.3-27.5
	s-20.2-3.2-28,8.3c-9.3,13.9-14.4,38.5,0.5,42.3c3.8,0.8,6,4,3.3,9.3s-24.7,52.1-34.3,66.7s-17.6,20.7-21.7,17.1
	c-4-3.5,0.8-21.7,24.9-45.3c3.5-3,3.3-7.6,1.5-10.6s-10.3-3.8-16.4-1c-6,2.8-9.3,4.8-13.1,7.3s-6.3,2.5-7.8,0.3
	c-1.5-2.3-3.5-7.3,16.4-19.4c3.3-2,6.3-3,12.8-2.5s8.6-2.3,10.3-4.5c1.8-2.3,6.8-9.1,8.6-12.8c1.8-3.8,0.3-7.3-5.5-7.8
	s-24.7-0.5-48.1,17.9c-11.8,9.3-19.1,22.4-18.1,29.7s1.8,14.6,17.4,15.6c5,0.3,4.8,5.5,2.5,8.6c-2.3,3-7.6,7.8-10.3,14.4
	c-2,5-12.8,20.7-17.1,28c-5.3,8.8-14.4,10.3-13.9-2.3c0.8-6.5,1-21.4,0.5-27.5c4-12.6,31.7-130.5,34.3-148.6
	c2-9.6-3.5-20.1-9.1-20.7c-5.5-0.5-29.2,11.6-37.3,60.4c-8.1,48.9-10.6,60.4-10.6,73c-19.6-1-35.3,12.1-42.3,33.2
	c-7.1,21.2-14.1,46.3-18.6,59.9s-8.6,21.7-13.6,20.7s-2.5-22.2-0.5-32.7c2-10.6,5-27.7,7.1-38.3c2-10.6-3-12.6-7.6-12.1
	c-4.5,0.5-30.7,13.6-38.3,46.3c-1.5,7.1-9.6,10.6-8.6,1s1.5-16.1-6-16.1c-4.1,0-14.1,5.5-20.1,20.1s-20.7,44.3-30.7,63.5
	c-10.1,19.1-21.7,31.7-27.7,26.7s8.6-30.2,13.1-36.3c6-4.5,17.1-13.1,14.1-19.1s-19.1-3.5-24.2,1c-5,5-12.1,8.1-15.1,5
	c-3-3,4-13.1,10.1-19.6c6-6.5,11.6-13.6,20.7-9.6c3.5,2,10.6-0.5,14.1-5s11.6-12.6,10.6-16.6s-7.6-7.6-18.1-6.5
	c-10.6,1-29.2,2.5-54.4,38.8c-7.6,14.1-3.5,29.7,7.1,29.7c5.5,0,10.1,6.5,6,12.1c-4,5.5-17.6,28.7-3.5,44.3
	c14.1,15.6,37.3,3.5,47.4-12.1s24.7-42.3,28.7-49.4c2.5-4.5,6-2,5.5,1.5s2.2,20.8,5,26.7c3.8,8.1,12.3,8.3,15.1-0.5
	c2.8-8.6,17.4-50.1,24.4-57.9c2.3-2.3,4.3-1.5,3.8,1.8s-1.8,22.7,3.5,31.5s13.1,16.6,24.2,6.5s14.4-21.7,16.9-27.7
	c1.3-3,4.8-3.7,5.5-0.8c2.8,11.3,35.5,26.9,48.6-19.9c0.5-4,5.5-5.5,7.1-1c1.5,4.5,6,10.1,13.6,9.6s24.2-12.6,31.2-29.7
	c1.5-4,6-2.5,8.6-0.5c2.5,2,12.1,8.1,21.2,4.5c9.1-3.5,23.2-15.1,35.3-37.3s30.2-59.4,34.8-70.5c2.5-6.5,7.6-4,6.3,1
	c-2.3,7.1-12.8,47.6,4.3,61.5c17.1,13.9,45.3-10.1,53.9-18.1c8.6-8.1,54.4-48.4,66-59.9C791,143.4,785.5,129.8,775.9,137.4z
	 M497.3,262.3c-4,9.6-14.1,29.7-22.2,26.7s-5.9-20.7-1.5-33.2c3.8-11,17.1-29.2,25.2-26.7C505.4,234.1,501.4,252.7,497.3,262.3z"/>
<path class="st0" d="M741.9,77.1c-10.4,0-19.2,8-19.2,18.8c0,10.9,8.8,18.9,19.2,18.9c10.3,0,19.1-8,19.1-18.9
	C760.9,85.1,752.2,77.1,741.9,77.1z M741.9,111.7c-8.6,0-15.4-6.7-15.4-15.8c0-8.9,6.7-15.7,15.4-15.7c8.5,0,15.3,6.7,15.3,15.7
	C757.2,105,750.4,111.7,741.9,111.7z"/>
<path class="st0" d="M744.9,97.2c3.2-0.4,5.6-2.1,5.6-6c0-4.3-2.5-6.2-7.7-6.2h-8.3v21.8h3.3v-9.4h3.8l5.7,9.4h3.7L744.9,97.2z
	 M737.9,94.6v-6.7h4.5c2.3,0,4.7,0.5,4.7,3.2c0,3.3-2.5,3.5-5.3,3.5H737.9z"/>
</svg>
