<?xml version="1.0" encoding="utf-8"?>
<!-- Generator: Adobe Illustrator 19.2.1, SVG Export Plug-In . SVG Version: 6.00 Build 0)  -->
<svg version="1.1" id="Layer_1" xmlns="http://www.w3.org/2000/svg" xmlns:xlink="http://www.w3.org/1999/xlink" x="0px" y="0px"
	 viewBox="0 0 792 612" style="enable-background:new 0 0 792 612;" xml:space="preserve">
<style type="text/css">
	.st0{fill:#FFFFFF;}
</style>
<g>
	<g>
		<ellipse class="st0" cx="200.7" cy="134.2" rx="24.2" ry="24.2"/>
		<path class="st0" d="M160.4,188.4c0,0,0-34.3,0-51.9c0-17.6-17.4-33.6-30.9-29.6c-13.4,4-69.7,21.2-72,22.3
			c-2.3,1-31.7,12.4-31.7,44.6l0.4,209.1c0,0,1.3,21,23.1,20.6c0,0,6.4,0,16.7-5.6c0,0,25.3-13.8,27-14.6
			c1.7-0.7,15.4-5.1,15.9,13.7v117.4l41.6-13.3c0,0,0-100.7,0-104.1c0-7.1,5.1-42.1,23.1-56.6c1.1-0.9,9.8-6.6,17.6,3.9
			c7.8,10.4,14.6,12,14.6,12s8.4,3.7,15.9-9c0.4-0.9,13.5-22.6,14.1-23.6c0.6-1,2.6-3.9,8.1-3.4c0,0,13.7-0.9,11.6,18.4
			c0,0,63.7-19.3,69-22.3c0.8-0.3,25.2-10.1,39.8-32.6c0,0,4.4-6.5,9.9-6c1,0,14.6,0.9,10.7,18.9c0,0,61.7-18.9,65.1-20.6
			c7.4-3,26.6-11,26.1-33.4c0.2-6.6-1.6-18.2-11.1-26.6c-0.5-0.5-42.5-31.4-42.9-31.7c-3.7-3.1-5.6-10.1,0.4-17.6
			c0,0,4.7-6.9,11.6-6.4c0,0,5.2-0.3,13.3,10.3c1.1,1.1,7,9,11.1,9.9c0,0,3.4,1.1,7.7-3c10.4-9.1,15.9-9.4,15.9-9.4s15-4.3,15,12.9
			c0,0,0,32.6,0,36c0,7.9,10.4,32,33.9,30.9c0,0,8.1-0.9,15.9-3l25.3-8.1c0,0,31.7-9.6,42.8-30c0,0,5.3-10.3,12.9-10.3
			c0,0,13.3-1.7,12,18.4l36-12v-87c0,0-1-10.3,11.1-10.3c12,0,11.6,9.4,11.6,9.4s0,176.2,0,180c0,5.1,5.3,20.8,22.7,20.6
			c0,0,48.8-0.4,48.8-42c0-3.1,0-15.9,0-15.9l-12.4,4.3v15c0,0,0.8,10.1-10.7,10.7c-1,0.2-12.4-0.2-12-11.1V56.4
			c0,0-0.9-10.3-11.1-10.3c0,0-9.4-0.9-16.7,12c-7.3,12.8-9.9,22.7-19.7,22.7c0,0-11.7,1.4-11.6-9V60.7l-36.9,12c0,0,0,40.9,0,42.4
			c0,10.5-7.9,62.8-21.9,63c-1,0.1-14.1,2-14.6-11.1c0,0,0-44.8,0-49.3c0.3-6.7-4.8-26.5-21.4-24.4l-15,3c0,0,0,103.4,0,106.7
			c0,3.3-1.2,19-18.9,19.7c-1.6,0.3-18.9-0.4-18.9-17.1v-69.4c0,0-0.9-12.4,11.6-13.3l0.4-18c0,0-37.7,8.6-55.3,40.3
			c-2.1,2.3-6.5,4.3-9.4,4.3c-1.8,0-10.3-0.5-10.7-9c0-2,0-11.6,0-11.6L403,149.4c0,0-24.4,7.7-24.4,32.6c0,0,0,17.2,10.7,25.3
			l43.3,32.6c0,0,7.4,5.3,3.8,14.1c-0.5,1.5-5.6,11.8-15.9,12c-2,0.2-8.6,0-12.4-9.9c0,0-3.4-12.9-14.6-9c0,0-20.8,7.3-22.3,7.7
			c-1.5,0.4-13.7,2.6-13.7-12c0,0,0-44.4,0-48c0-3.6-4.4-23.9-21.4-23.1c0,0-9.9,0.9-18.4,4.7v21c0,0,11.6-1.7,11.6,13.3v72.4
			c0,0,0.5,18.1-18.4,18.4c-15.8-0.2-18.4-15.3-18.4-17.1c-0.2-10.3,0.4-231,0.4-231L255.1,68l0.4,158.1c0,0-2.3,51.4-16.7,71.1
			c-4.2,5.7-18.8,5.7-20.1-6.9V209l-36.8,11.6c0,0,0,27.5,0,33c0,5.5-5.1,71-23.9,70c-2.4,0.1-7.4-2.6-7.5-13.8l0.2-79.8l-36.1,12.8
			c0,0-0.3,43.9-0.4,46.3c-1.1,14.1,0.9,77.6-41.1,77.6c0,0-10.3,0.4-10.3-12V177.3c0,0,1.2-20,16.7-27c0,0,15.9-5.7,19.3-6.9
			c3.4-1.2,16.3,0,16.3,14.1v45L160.4,188.4z"/>
	</g>
	<g>
		<path class="st0" d="M740.4,60.1c0-7,5.6-11.5,11.8-11.5S764,53.1,764,60.1c0,7-5.6,11.5-11.8,11.5S740.4,67.1,740.4,60.1z
			 M752.2,50.9c-4.9,0-8.8,3.8-8.8,9.1c0,5.3,3.9,9.1,8.8,9.1c4.9,0,8.8-3.8,8.8-9.1C761,54.7,757.1,50.9,752.2,50.9z M750.2,66.5
			h-2.6V53.6h4.9c3.2,0,5,1,5,3.8c0,2.4-1.4,3.3-3.1,3.5l3.1,5.6h-2.8l-2.9-5.5h-1.6V66.5z M750.2,59h2.2c1.9,0,2.5-0.6,2.5-1.8
			c0-1.2-0.8-1.6-2.6-1.6h-2.1V59z"/>
	</g>
</g>
</svg>
